<svg width="37" height="27" viewBox="0 0 37 27" fill="none" xmlns="http://www.w3.org/2000/svg">
<path d="M9.1 26.3C6.76667 26.3 4.66667 25.3667 2.8 23.5C0.933334 21.5667 0 18.7333 0 15C0 10.7333 1.13333 7.26666 3.4 4.6C5.73333 1.86667 9.03333 0.5 13.3 0.5C14.8333 0.5 16.0333 0.599998 16.9 0.799995V5.4C15.9667 5.26666 14.7667 5.2 13.3 5.2C11.0333 5.2 9.2 5.96666 7.8 7.5C6.46667 8.83333 5.7 10.6 5.5 12.8C6.36667 11.7333 7.76667 11.2 9.7 11.2C11.7 11.2 13.4 11.9 14.8 13.3C16.2 14.6333 16.9 16.4 16.9 18.6C16.9 20.8667 16.1667 22.7333 14.7 24.2C13.2333 25.6 11.3667 26.3 9.1 26.3ZM29 26.3C26.6667 26.3 24.5667 25.3667 22.7 23.5C20.8333 21.5667 19.9 18.7333 19.9 15C19.9 10.7333 21.0333 7.26666 23.3 4.6C25.6333 1.86667 28.9333 0.5 33.2 0.5C34.7333 0.5 35.9333 0.599998 36.8 0.799995V5.4C35.8667 5.26666 34.6667 5.2 33.2 5.2C30.9333 5.2 29.1 5.96666 27.7 7.5C26.3667 8.83333 25.6 10.6 25.4 12.8C26.2667 11.7333 27.6667 11.2 29.6 11.2C31.6 11.2 33.3 11.9 34.7 13.3C36.1 14.6333 36.8 16.4 36.8 18.6C36.8 20.8667 36.0667 22.7333 34.6 24.2C33.1333 25.6 31.2667 26.3 29 26.3Z" fill="#050B20"/>
</svg>
