<svg width="110" height="111" viewBox="0 0 110 111" fill="none" xmlns="http://www.w3.org/2000/svg">
<g clip-path="url(#clip0_1_1089)">
<g clip-path="url(#clip1_1_1089)">
<path d="M17.1875 84.9483V26.4931C17.1875 14.6325 26.779 5.01758 38.6109 5.01758H25.5664C13.7008 5.01758 4.08203 14.6363 4.08203 26.5019V84.9395C4.08203 96.8048 13.7008 106.424 25.5664 106.424H38.6109C26.779 106.424 17.1875 96.8089 17.1875 84.9483Z" fill="#CEE1F2"/>
<path d="M72.4023 105.227C70.1826 106.002 67.7967 106.424 65.3125 106.424H25.7812C13.9156 106.424 4.29688 96.8048 4.29688 84.9395V26.5019C4.29688 14.6363 13.9156 5.01758 25.7812 5.01758H65.3125C77.1779 5.01758 86.7969 14.6363 86.7969 26.5019V49.0605M54.7852 83.0059H71.1133M21.4844 82.791L25.4341 86.8821C27.1343 88.5888 29.8912 88.5888 31.5915 86.8821L39.7461 78.4941" stroke="#FFA602" stroke-width="5" stroke-miterlimit="10" stroke-linecap="round" stroke-linejoin="round"/>
<path d="M105.047 70.7836C100.32 68.9454 97.1951 68.6829 94.8535 68.6829C90.5029 68.6829 87.0117 72.2097 87.0117 76.5605C87.0117 80.9113 90.9148 84.4382 96.6917 84.4382C101.681 84.4382 105.703 87.9651 105.703 92.3159C105.703 96.6665 101.961 100.194 97.6106 100.194C95.5763 100.194 91.0458 99.5331 86.582 97.7587M96.6797 68.6829V61.7363M96.6797 100.193V106.424M57.793 58.5137V60.2324M34.1602 58.5137V60.2324" stroke="#FFA602" stroke-width="5" stroke-miterlimit="10" stroke-linecap="round" stroke-linejoin="round"/>
<path d="M68.5352 37.459H68.1835C68.1734 37.4353 68.1661 37.4109 68.1557 37.3874L64.3038 28.841C64.3002 28.833 64.2967 28.8253 64.2931 28.8173C62.5023 24.9074 58.9291 22.0424 54.734 21.1536C52.2427 20.626 49.1996 20.2715 45.8829 20.2715C42.6308 20.2715 39.6816 20.6135 37.2649 21.1227C33.0507 22.0109 29.4639 24.8784 27.6706 28.7935C27.6669 28.8014 27.6635 28.8094 27.6598 28.8173L23.7974 37.3872C23.7869 37.4106 23.7798 37.4351 23.7697 37.4588H23.418C21.0448 37.4588 19.1211 39.3825 19.1211 41.7556C19.1211 44.1288 21.0448 46.0525 23.418 46.0525V50.0237C23.418 55.5344 27.8339 60.0176 33.2617 60.0176H58.6912C64.1193 60.0176 68.5352 55.5344 68.5352 50.0239V46.0527C70.9083 46.0527 72.832 44.129 72.832 41.7559C72.832 39.3827 70.9083 37.459 68.5352 37.459ZM35.4885 32.3622C36.1541 30.9176 37.4799 29.86 39.0369 29.5319C40.6093 29.2006 42.9015 28.8652 45.8831 28.8652C48.9326 28.8652 51.3212 29.2152 52.953 29.5609C54.4951 29.8877 55.811 30.9434 56.4755 32.3861L58.7617 37.459H33.1914L35.4885 32.3622ZM35.0195 53.7871C32.1718 53.7871 29.8633 51.4786 29.8633 48.6309C29.8633 45.7831 32.1718 43.4746 35.0195 43.4746C37.8673 43.4746 40.1758 45.7831 40.1758 48.6309C40.1758 51.4786 37.8673 53.7871 35.0195 53.7871ZM56.9336 53.7871C54.0858 53.7871 51.7773 51.4786 51.7773 48.6309C51.7773 45.7831 54.0858 43.4746 56.9336 43.4746C59.7813 43.4746 62.0898 45.7831 62.0898 48.6309C62.0898 51.4786 59.7813 53.7871 56.9336 53.7871Z" fill="#FFA602"/>
</g>
</g>
<defs>
<clipPath id="clip0_1_1089">
<rect width="110" height="110" fill="white" transform="translate(0 0.720703)"/>
</clipPath>
<clipPath id="clip1_1_1089">
<rect width="110" height="110" fill="white" transform="translate(0 0.720703)"/>
</clipPath>
</defs>
</svg>
