<svg width="110" height="111" viewBox="0 0 110 111" fill="none" xmlns="http://www.w3.org/2000/svg">
<g clip-path="url(#clip0_1_1073)">
<g clip-path="url(#clip1_1_1073)">
<path d="M43.1686 15.5449C36.3829 15.5449 30.2324 19.5374 27.4699 25.7352L16.292 50.8137C9.59104 51.2741 4.29688 56.8521 4.29688 63.6699V76.5605C4.29688 82.4932 9.10636 87.3027 15.0391 87.3027H17.9835C17.9994 86.476 18.0204 85.6495 18.0469 84.823C17.3476 83.3975 16.9533 81.7952 16.9533 80.1003L16.7578 72.4785C16.7578 66.8419 17.9046 61.6648 22.0885 60.8219C24.0773 60.4213 25.7424 59.0663 26.5573 57.2083L40.3605 25.7352C43.1228 19.5374 49.2733 15.5449 56.0592 15.5449H43.1686Z" fill="#CEE1F2"/>
<path d="M94.9609 87.3027C100.894 87.3027 105.703 82.4932 105.703 76.5605V63.6699C105.703 56.5506 99.9318 50.7793 92.8125 50.7793L79.5736 24.9712C76.6474 19.1895 70.7184 15.5449 64.2383 15.5449H43.1686C36.3829 15.5449 30.2324 19.5374 27.4699 25.7352L16.292 50.8137C9.59104 51.2741 4.29688 56.8521 4.29688 63.6699V76.5605C4.29688 82.4932 9.10636 87.3027 15.0391 87.3027" stroke="#FFA602" stroke-width="5" stroke-miterlimit="10" stroke-linecap="round" stroke-linejoin="round"/>
<path d="M38.0268 95.8965C42.773 95.8965 46.6206 92.0489 46.6206 87.3027C46.6206 82.5565 42.773 78.709 38.0268 78.709C33.2806 78.709 29.4331 82.5565 29.4331 87.3027C29.4331 92.0489 33.2806 95.8965 38.0268 95.8965Z" stroke="#FFA602" stroke-width="5" stroke-miterlimit="10" stroke-linecap="round" stroke-linejoin="round"/>
<path d="M63.1641 87.3027H49.8433" stroke="#FFA602" stroke-width="5" stroke-miterlimit="10" stroke-linecap="round" stroke-linejoin="round"/>
<path d="M71.9727 95.8965C76.7189 95.8965 80.5664 92.0489 80.5664 87.3027C80.5664 82.5565 76.7189 78.709 71.9727 78.709C67.2265 78.709 63.3789 82.5565 63.3789 87.3027C63.3789 92.0489 67.2265 95.8965 71.9727 95.8965Z" stroke="#FFA602" stroke-width="5" stroke-miterlimit="10" stroke-linecap="round" stroke-linejoin="round"/>
<path d="M51.561 67.5371L63.5306 55.9306C65.9364 53.5794 64.2731 49.4919 60.9103 49.4919H49.9477C46.5788 49.4919 44.9184 45.3912 47.3369 43.0441L59.733 31.0137" stroke="#050B20" stroke-width="5" stroke-miterlimit="10" stroke-linecap="round" stroke-linejoin="round"/>
</g>
</g>
<defs>
<clipPath id="clip0_1_1073">
<rect width="110" height="110" fill="white" transform="translate(0 0.720703)"/>
</clipPath>
<clipPath id="clip1_1_1073">
<rect width="110" height="110" fill="white" transform="translate(0 0.720703)"/>
</clipPath>
</defs>
</svg>
