<svg width="19" height="19" viewBox="0 0 19 19" fill="none" xmlns="http://www.w3.org/2000/svg">
<g clip-path="url(#clip0_1_1424)">
<path d="M11.2001 3.52016C11.2001 3.36016 11.1501 3.23016 11.0501 3.13016C10.9501 3.03016 10.8201 2.98016 10.6601 2.98016H5.02006C4.86006 2.98016 4.73006 3.03016 4.63006 3.13016C4.53006 3.23016 4.48006 3.36016 4.48006 3.52016V8.02016C4.48006 8.18016 4.53006 8.32016 4.63006 8.44016C4.73006 8.56016 4.86006 8.62016 5.02006 8.62016H10.6601C10.8201 8.62016 10.9501 8.56016 11.0501 8.44016C11.1501 8.32016 11.2001 8.18016 11.2001 8.02016V3.52016ZM10.0601 7.48016H5.56006V4.12016H10.0601V7.48016ZM17.6801 4.12016L15.4001 3.04016C15.2801 2.96016 15.1401 2.94016 14.9801 2.98016C14.8201 3.02016 14.7101 3.11016 14.6501 3.25016C14.5901 3.39016 14.5801 3.54016 14.6201 3.70016C14.6601 3.86016 14.7601 3.96016 14.9201 4.00016L15.7601 4.48016L15.7001 4.66016C15.7001 5.02016 15.8101 5.34016 16.0301 5.62016C16.2501 5.90016 16.5201 6.10016 16.8401 6.22016V13.0602C16.8401 13.2202 16.7801 13.3602 16.6601 13.4802C16.5401 13.6002 16.4101 13.6602 16.2701 13.6602C16.1301 13.6602 16.0001 13.6002 15.8801 13.4802C15.7601 13.3602 15.7001 13.2202 15.7001 13.0602V8.56016C15.7001 7.92016 15.4701 7.34016 15.0101 6.82016C14.5501 6.30016 14.0401 5.98016 13.4801 5.86016V2.38016C13.4801 1.78016 13.2601 1.26016 12.8201 0.820156C12.3801 0.380157 11.8601 0.160156 11.2601 0.160156H4.48006C3.88006 0.160156 3.35006 0.380157 2.89006 0.820156C2.43006 1.26016 2.20006 1.78016 2.20006 2.38016V14.9802L1.42006 15.4002C1.18006 15.5202 1.06006 15.6802 1.06006 15.8802V17.5602C1.06006 17.7202 1.12006 17.8602 1.24006 17.9802C1.36006 18.1002 1.50006 18.1602 1.66006 18.1602H14.0201C14.1801 18.1602 14.3101 18.1002 14.4101 17.9802C14.5101 17.8602 14.5601 17.7202 14.5601 17.5602V15.8802C14.5601 15.6802 14.4601 15.5202 14.2601 15.4002L13.4801 14.9802V7.00016C13.7601 7.12016 14.0101 7.33016 14.2301 7.63016C14.4501 7.93016 14.5601 8.24016 14.5601 8.56016V13.0602C14.5601 13.5402 14.7301 13.9502 15.0701 14.2902C15.4101 14.6302 15.8101 14.8002 16.2701 14.8002C16.7301 14.8002 17.1301 14.6302 17.4701 14.2902C17.8101 13.9502 17.9801 13.5402 17.9801 13.0602V4.66016C17.9801 4.42016 17.8801 4.24016 17.6801 4.12016ZM13.4801 17.0202H2.20006V16.2402L3.04006 15.8202C3.24006 15.7402 3.34006 15.5802 3.34006 15.3402V2.38016C3.34006 2.10016 3.45006 1.85016 3.67006 1.63016C3.89006 1.41016 4.16006 1.30016 4.48006 1.30016H11.2601C11.5401 1.30016 11.7901 1.41016 12.0101 1.63016C12.2301 1.85016 12.3401 2.10016 12.3401 2.38016V15.3402C12.3401 15.5802 12.4401 15.7402 12.6401 15.8202L13.4801 16.2402V17.0202Z" fill="#050B20"/>
</g>
<defs>
<clipPath id="clip0_1_1424">
<rect width="18" height="18" fill="white" transform="matrix(1 0 0 -1 0.52002 18.1602)"/>
</clipPath>
</defs>
</svg>
