<svg width="14" height="14" viewBox="0 0 14 14" fill="none" xmlns="http://www.w3.org/2000/svg">
<path d="M7.18075 4.00586C9.02646 4.00586 10.5499 5.5293 10.5499 7.375C10.5499 9.25 9.02646 10.7441 7.18075 10.7441C5.30575 10.7441 3.81161 9.25 3.81161 7.375C3.81161 5.5293 5.30575 4.00586 7.18075 4.00586ZM7.18075 9.57227C8.38193 9.57227 9.34872 8.60547 9.34872 7.375C9.34872 6.17383 8.38193 5.20703 7.18075 5.20703C5.95028 5.20703 4.98349 6.17383 4.98349 7.375C4.98349 8.60547 5.97958 9.57227 7.18075 9.57227ZM11.4581 3.88867C11.4581 4.32812 11.1065 4.67969 10.6671 4.67969C10.2276 4.67969 9.87607 4.32812 9.87607 3.88867C9.87607 3.44922 10.2276 3.09766 10.6671 3.09766C11.1065 3.09766 11.4581 3.44922 11.4581 3.88867ZM13.6847 4.67969C13.7433 5.76367 13.7433 9.01562 13.6847 10.0996C13.6261 11.1543 13.3917 12.0625 12.63 12.8535C11.8683 13.6152 10.9308 13.8496 9.87607 13.9082C8.79208 13.9668 5.54013 13.9668 4.45614 13.9082C3.40146 13.8496 2.49325 13.6152 1.70224 12.8535C0.940519 12.0625 0.706144 11.1543 0.647551 10.0996C0.588957 9.01562 0.588957 5.76367 0.647551 4.67969C0.706144 3.625 0.940519 2.6875 1.70224 1.92578C2.49325 1.16406 3.40146 0.929688 4.45614 0.871094C5.54013 0.8125 8.79208 0.8125 9.87607 0.871094C10.9308 0.929688 11.8683 1.16406 12.63 1.92578C13.3917 2.6875 13.6261 3.625 13.6847 4.67969ZM12.2784 11.2422C12.63 10.3926 12.5421 8.3418 12.5421 7.375C12.5421 6.4375 12.63 4.38672 12.2784 3.50781C12.044 2.95117 11.6046 2.48242 11.0479 2.27734C10.169 1.92578 8.11825 2.01367 7.18075 2.01367C6.21396 2.01367 4.16318 1.92578 3.31357 2.27734C2.72763 2.51172 2.28818 2.95117 2.0538 3.50781C1.70224 4.38672 1.79013 6.4375 1.79013 7.375C1.79013 8.3418 1.70224 10.3926 2.0538 11.2422C2.28818 11.8281 2.72763 12.2676 3.31357 12.502C4.16318 12.8535 6.21396 12.7656 7.18075 12.7656C8.11825 12.7656 10.169 12.8535 11.0479 12.502C11.6046 12.2676 12.0733 11.8281 12.2784 11.2422Z" fill="white"/>
</svg>
