<svg width="14" height="14" viewBox="0 0 14 14" fill="none" xmlns="http://www.w3.org/2000/svg">
<path d="M3.54794 14H0.823332V5.24023H3.54794V14ZM2.17099 4.06836C1.32138 4.06836 0.618254 3.33594 0.618254 2.45703C0.618254 1.60742 1.32138 0.904297 2.17099 0.904297C3.04989 0.904297 3.75302 1.60742 3.75302 2.45703C3.75302 3.33594 3.04989 4.06836 2.17099 4.06836ZM13.714 14H11.0186V9.75195C11.0186 8.72656 10.9893 7.4375 9.5831 7.4375C8.17685 7.4375 7.97177 8.52148 7.97177 9.66406V14H5.24716V5.24023H7.85458V6.44141H7.88388C8.26474 5.76758 9.14364 5.03516 10.462 5.03516C13.2159 5.03516 13.7433 6.85156 13.7433 9.19531V14H13.714Z" fill="white"/>
</svg>
