<svg width="19" height="19" viewBox="0 0 19 19" fill="none" xmlns="http://www.w3.org/2000/svg">
<g clip-path="url(#clip0_1_1421)">
<path d="M18.52 10.7804C18.52 12.8204 17.92 14.6404 16.72 16.2404C16.6 16.4004 16.44 16.4904 16.24 16.5104C16.04 16.5304 15.86 16.4804 15.7 16.3604C15.54 16.2404 15.45 16.0904 15.43 15.9104C15.41 15.7304 15.46 15.5604 15.58 15.4004C16.62 14.0404 17.14 12.5004 17.14 10.7804C17.14 9.42036 16.8 8.16036 16.12 7.00036C15.44 5.84036 14.51 4.92036 13.33 4.24036C12.15 3.56036 10.88 3.22036 9.52002 3.22036C8.16002 3.22036 6.89002 3.56036 5.71002 4.24036C4.53002 4.92036 3.60002 5.84036 2.92002 7.00036C2.24002 8.16036 1.90002 9.42036 1.90002 10.7804C1.90002 12.5004 2.42002 14.0404 3.46002 15.4004C3.58002 15.5604 3.63002 15.7304 3.61002 15.9104C3.59002 16.0904 3.50002 16.2404 3.34002 16.3604C3.18002 16.4804 3.00002 16.5304 2.80002 16.5104C2.60002 16.4904 2.44002 16.4004 2.32002 16.2404C1.12002 14.6404 0.52002 12.8204 0.52002 10.7804C0.52002 9.18036 0.92002 7.69036 1.72002 6.31036C2.52002 4.93036 3.61002 3.84036 4.99002 3.04036C6.37002 2.24036 7.88002 1.84036 9.52002 1.84036C11.16 1.84036 12.67 2.24036 14.05 3.04036C15.43 3.84036 16.52 4.93036 17.32 6.31036C18.12 7.69036 18.52 9.18036 18.52 10.7804ZM13.96 6.58036C14.12 6.70036 14.2 6.86036 14.2 7.06036C14.2 7.26036 14.12 7.42036 13.96 7.54036L11.68 9.88036C11.88 10.2404 11.98 10.6204 11.98 11.0204C11.98 11.7004 11.74 12.2804 11.26 12.7604C10.78 13.2404 10.2 13.4804 9.52002 13.4804C8.84002 13.4804 8.26002 13.2404 7.78002 12.7604C7.30002 12.2804 7.06002 11.7004 7.06002 11.0204C7.06002 10.3404 7.30002 9.76036 7.78002 9.28036C8.26002 8.80036 8.84002 8.56036 9.52002 8.56036C9.92002 8.56036 10.3 8.66036 10.66 8.86036L13 6.58036C13.12 6.42036 13.28 6.34036 13.48 6.34036C13.68 6.34036 13.84 6.42036 13.96 6.58036ZM10.6 11.0204C10.6 10.7404 10.49 10.5004 10.27 10.3004C10.05 10.1004 9.80002 10.0004 9.52002 10.0004C9.24002 10.0004 8.99002 10.1004 8.77002 10.3004C8.55002 10.5004 8.44002 10.7404 8.44002 11.0204C8.44002 11.3004 8.55002 11.5504 8.77002 11.7704C8.99002 11.9904 9.24002 12.1004 9.52002 12.1004C9.80002 12.1004 10.05 11.9904 10.27 11.7704C10.49 11.5504 10.6 11.3004 10.6 11.0204Z" fill="#050B20"/>
</g>
<defs>
<clipPath id="clip0_1_1421">
<rect width="18" height="18" fill="white" transform="matrix(1 0 0 -1 0.52002 18.1602)"/>
</clipPath>
</defs>
</svg>
