<svg width="94" height="94" viewBox="0 0 94 94" fill="none" xmlns="http://www.w3.org/2000/svg">
<g clip-path="url(#clip0_12_6170)">
<path d="M14.9196 38.7088C14.9196 21.1658 27.812 6.63385 44.639 4.07083C42.9043 3.80647 41.1275 3.66943 39.3189 3.66943C19.9671 3.66943 4.2793 19.3573 4.2793 38.709C4.2793 58.0608 19.9671 73.7486 39.3189 73.7486C41.1275 73.7486 42.9043 73.6114 44.639 73.347C27.8121 70.7838 14.9196 56.2521 14.9196 38.7088Z" fill="white" fill-opacity="0.2"/>
<path d="M38.7448 77.4173C17.4007 77.4173 0.0361328 60.0527 0.0361328 38.7086C0.0361328 17.3646 17.4007 0 38.7448 0C60.0888 0 77.4534 17.3646 77.4534 38.7086C77.4534 60.0527 60.0888 77.4173 38.7448 77.4173ZM38.7448 7.33813C21.447 7.33813 7.37426 21.4108 7.37426 38.7086C7.37426 56.0065 21.447 70.0792 38.7448 70.0792C56.0426 70.0792 70.1153 56.0065 70.1153 38.7086C70.1153 21.4108 56.0426 7.33813 38.7448 7.33813Z" fill="#050B20"/>
<path d="M90.2951 94.0001C89.3562 94.0001 88.4171 93.642 87.7005 92.9256L71.2815 76.5065C69.8487 75.0736 69.8487 72.7503 71.2815 71.3176C72.7144 69.8846 75.0377 69.8846 76.4704 71.3176L92.8895 87.7366C94.3223 89.1696 94.3223 91.4928 92.8895 92.9256C92.1731 93.6418 91.234 94.0001 90.2951 94.0001ZM43.1749 49.0979L57.6745 34.5073C59.1029 33.0699 59.0956 30.7469 57.6582 29.3185C56.2212 27.8903 53.8982 27.8971 52.4694 29.3348L37.9669 43.9285C37.1988 44.7031 36.1799 45.1298 35.0979 45.1298C34.0158 45.1298 32.9969 44.7031 32.229 43.9285L25.2062 36.845C23.7795 35.406 21.4565 35.3958 20.0174 36.8227C18.5784 38.2494 18.5685 40.5724 19.9951 42.0115L27.018 49.0949C29.1747 51.27 32.0441 52.4677 35.098 52.4677C38.152 52.4677 41.0214 51.27 43.1749 49.0979Z" fill="white"/>
</g>
<defs>
<clipPath id="clip0_12_6170">
<rect width="94" height="94" fill="white"/>
</clipPath>
</defs>
</svg>
