<svg width="19" height="19" viewBox="0 0 19 19" fill="none" xmlns="http://www.w3.org/2000/svg">
<path d="M3.51998 1.84047C2.95998 1.84047 2.47998 2.04047 2.07998 2.44047C1.67998 2.84047 1.47998 3.33047 1.47998 3.91047C1.47998 4.49047 1.67998 4.98047 2.07998 5.38047C2.47998 5.78047 2.95998 5.98047 3.51998 5.98047C4.07998 5.98047 4.55998 5.78047 4.95998 5.38047C5.35998 4.98047 5.55998 4.49047 5.55998 3.91047C5.55998 3.33047 5.35998 2.84047 4.95998 2.44047C4.55998 2.04047 4.07998 1.84047 3.51998 1.84047ZM3.51998 2.98047C3.75998 2.98047 3.97998 3.07047 4.17998 3.25047C4.37998 3.43047 4.47998 3.65047 4.47998 3.91047C4.47998 4.17047 4.37998 4.39047 4.17998 4.57047C3.97998 4.75047 3.75998 4.84047 3.51998 4.84047C3.27998 4.84047 3.05998 4.75047 2.85998 4.57047C2.65998 4.39047 2.55998 4.17047 2.55998 3.91047C2.55998 3.65047 2.65998 3.43047 2.85998 3.25047C3.05998 3.07047 3.27998 2.98047 3.51998 2.98047ZM3.51998 12.3405C2.95998 12.3405 2.47998 12.5405 2.07998 12.9405C1.67998 13.3405 1.47998 13.8305 1.47998 14.4105C1.47998 14.9905 1.67998 15.4805 2.07998 15.8805C2.47998 16.2805 2.95998 16.4805 3.51998 16.4805C4.07998 16.4805 4.55998 16.2805 4.95998 15.8805C5.35998 15.4805 5.55998 14.9905 5.55998 14.4105C5.55998 13.8305 5.35998 13.3405 4.95998 12.9405C4.55998 12.5405 4.07998 12.3405 3.51998 12.3405ZM3.51998 13.4805C3.75998 13.4805 3.97998 13.5705 4.17998 13.7505C4.37998 13.9305 4.47998 14.1505 4.47998 14.4105C4.47998 14.6705 4.37998 14.8905 4.17998 15.0705C3.97998 15.2505 3.75998 15.3405 3.51998 15.3405C3.27998 15.3405 3.05998 15.2505 2.85998 15.0705C2.65998 14.8905 2.55998 14.6705 2.55998 14.4105C2.55998 14.1505 2.65998 13.9305 2.85998 13.7505C3.05998 13.5705 3.27998 13.4805 3.51998 13.4805ZM9.51998 1.84047C8.95998 1.84047 8.47998 2.04047 8.07998 2.44047C7.67998 2.84047 7.47998 3.33047 7.47998 3.91047C7.47998 4.49047 7.67998 4.98047 8.07998 5.38047C8.47998 5.78047 8.95998 5.98047 9.51998 5.98047C10.08 5.98047 10.56 5.78047 10.96 5.38047C11.36 4.98047 11.56 4.49047 11.56 3.91047C11.56 3.33047 11.36 2.84047 10.96 2.44047C10.56 2.04047 10.08 1.84047 9.51998 1.84047ZM9.51998 2.98047C9.75998 2.98047 9.97998 3.07047 10.18 3.25047C10.38 3.43047 10.48 3.65047 10.48 3.91047C10.48 4.17047 10.38 4.39047 10.18 4.57047C9.97998 4.75047 9.75998 4.84047 9.51998 4.84047C9.27998 4.84047 9.05998 4.75047 8.85998 4.57047C8.65998 4.39047 8.55998 4.17047 8.55998 3.91047C8.55998 3.65047 8.65998 3.43047 8.85998 3.25047C9.05998 3.07047 9.27998 2.98047 9.51998 2.98047ZM9.51998 12.3405C8.95998 12.3405 8.47998 12.5405 8.07998 12.9405C7.67998 13.3405 7.47998 13.8305 7.47998 14.4105C7.47998 14.9905 7.67998 15.4805 8.07998 15.8805C8.47998 16.2805 8.95998 16.4805 9.51998 16.4805C10.08 16.4805 10.56 16.2805 10.96 15.8805C11.36 15.4805 11.56 14.9905 11.56 14.4105C11.56 13.8305 11.36 13.3405 10.96 12.9405C10.56 12.5405 10.08 12.3405 9.51998 12.3405ZM9.51998 13.4805C9.75998 13.4805 9.97998 13.5705 10.18 13.7505C10.38 13.9305 10.48 14.1505 10.48 14.4105C10.48 14.6705 10.38 14.8905 10.18 15.0705C9.97998 15.2505 9.75998 15.3405 9.51998 15.3405C9.27998 15.3405 9.05998 15.2505 8.85998 15.0705C8.65998 14.8905 8.55998 14.6705 8.55998 14.4105C8.55998 14.1505 8.65998 13.9305 8.85998 13.7505C9.05998 13.5705 9.27998 13.4805 9.51998 13.4805ZM15.52 1.84047C14.96 1.84047 14.48 2.04047 14.08 2.44047C13.68 2.84047 13.48 3.33047 13.48 3.91047C13.48 4.49047 13.68 4.98047 14.08 5.38047C14.48 5.78047 14.96 5.98047 15.52 5.98047C16.08 5.98047 16.56 5.78047 16.96 5.38047C17.36 4.98047 17.56 4.49047 17.56 3.91047C17.56 3.33047 17.36 2.84047 16.96 2.44047C16.56 2.04047 16.08 1.84047 15.52 1.84047ZM15.52 2.98047C15.76 2.98047 15.98 3.07047 16.18 3.25047C16.38 3.43047 16.48 3.65047 16.48 3.91047C16.48 4.17047 16.38 4.39047 16.18 4.57047C15.98 4.75047 15.76 4.84047 15.52 4.84047C15.28 4.84047 15.06 4.75047 14.86 4.57047C14.66 4.39047 14.56 4.17047 14.56 3.91047C14.56 3.65047 14.66 3.43047 14.86 3.25047C15.06 3.07047 15.28 2.98047 15.52 2.98047ZM15.52 12.3405C14.96 12.3405 14.48 12.5405 14.08 12.9405C13.68 13.3405 13.48 13.8305 13.48 14.4105C13.48 14.9905 13.68 15.4805 14.08 15.8805C14.48 16.2805 14.96 16.4805 15.52 16.4805C16.08 16.4805 16.56 16.2805 16.96 15.8805C17.36 15.4805 17.56 14.9905 17.56 14.4105C17.56 13.8305 17.36 13.3405 16.96 12.9405C16.56 12.5405 16.08 12.3405 15.52 12.3405ZM15.52 13.4805C15.76 13.4805 15.98 13.5705 16.18 13.7505C16.38 13.9305 16.48 14.1505 16.48 14.4105C16.48 14.6705 16.38 14.8905 16.18 15.0705C15.98 15.2505 15.76 15.3405 15.52 15.3405C15.28 15.3405 15.06 15.2505 14.86 15.0705C14.66 14.8905 14.56 14.6705 14.56 14.4105C14.56 14.1505 14.66 13.9305 14.86 13.7505C15.06 13.5705 15.28 13.4805 15.52 13.4805ZM2.97998 5.38047V12.8805C2.97998 13.0405 3.02998 13.1805 3.12998 13.3005C3.22998 13.4205 3.35998 13.4805 3.51998 13.4805C3.67998 13.4805 3.80998 13.4205 3.90998 13.3005C4.00998 13.1805 4.05998 13.0605 4.05998 12.9405V5.38047C4.05998 5.26047 4.00998 5.14047 3.90998 5.02047C3.80998 4.90047 3.67998 4.84047 3.51998 4.84047C3.35998 4.84047 3.22998 4.90047 3.12998 5.02047C3.02998 5.14047 2.97998 5.26047 2.97998 5.38047ZM8.97998 5.38047V12.8805C8.97998 13.0405 9.02998 13.1805 9.12998 13.3005C9.22998 13.4205 9.35998 13.4805 9.51998 13.4805C9.67998 13.4805 9.80998 13.4205 9.90998 13.3005C10.01 13.1805 10.06 13.0605 10.06 12.9405V5.38047C10.06 5.26047 10.01 5.14047 9.90998 5.02047C9.80998 4.90047 9.67998 4.84047 9.51998 4.84047C9.35998 4.84047 9.22998 4.90047 9.12998 5.02047C9.02998 5.14047 8.97998 5.26047 8.97998 5.38047ZM14.98 5.38047V8.38047C14.98 8.46047 14.96 8.52047 14.92 8.56047C14.88 8.60047 14.84 8.62047 14.8 8.62047H3.51998C3.35998 8.62047 3.22998 8.67047 3.12998 8.77047C3.02998 8.87047 2.97998 9.00047 2.97998 9.16047C2.97998 9.32047 3.02998 9.45047 3.12998 9.55047C3.22998 9.65047 3.35998 9.70047 3.51998 9.70047H14.8C15.16 9.70047 15.46 9.58047 15.7 9.34047C15.94 9.10047 16.06 8.78047 16.06 8.38047V5.44047C16.06 5.28047 16.01 5.14047 15.91 5.02047C15.81 4.90047 15.68 4.84047 15.52 4.84047C15.36 4.84047 15.23 4.90047 15.13 5.02047C15.03 5.14047 14.98 5.26047 14.98 5.38047Z" fill="#050B20"/>
</svg>
