<svg width="385" height="120" viewBox="0 0 385 120" fill="none" xmlns="http://www.w3.org/2000/svg">
<path d="M85 22H375C380.523 22 385 26.4772 385 32V72H85V22Z" fill="#FFA602"/>
<path d="M85 47H385V97C385 102.523 380.523 107 375 107H85V47Z" fill="white"/>
<circle cx="60" cy="60" r="60" fill="#FFA602"/>
<rect x="10" y="10" width="100" height="100" rx="50" fill="#FFA602"/>
<rect x="10" y="10" width="100" height="100" fill="#FF0000" fill-opacity="0.01"/>
<path d="M52.5764 38.8375C51.5578 27.1202 39.3338 21.3708 38.8164 21.1362C38.3311 20.9068 37.7871 20.8375 37.2644 20.9282C23.1524 23.2695 21.0298 31.4828 20.9444 31.8242C20.8271 32.3042 20.8484 32.8002 20.9978 33.2642C37.8298 85.4882 72.8111 95.1682 84.3098 98.3522C85.1951 98.5975 85.9258 98.7948 86.4804 98.9762C86.7471 99.0668 87.0244 99.1042 87.3018 99.1042C87.6804 99.1042 88.0591 99.0242 88.4058 98.8642C88.7578 98.7042 97.0671 94.7895 99.0991 82.0215C99.1898 81.4668 99.0991 80.8908 98.8431 80.3895C98.6618 80.0375 94.3151 71.7655 82.2618 68.8428C81.4191 68.6242 80.5551 68.8482 79.9044 69.4028C76.1018 72.6508 70.8484 76.1122 68.5818 76.4695C53.3871 69.0402 44.9018 54.7842 44.5818 52.0802C44.3951 50.5602 47.8778 45.2215 51.8831 40.8802C52.3898 40.3308 52.6458 39.5842 52.5764 38.8375Z" fill="black"/>
<mask id="mask0_33_3148" style="mask-type:luminance" maskUnits="userSpaceOnUse" x="20" y="20" width="80" height="80">
<path d="M52.5764 38.8375C51.5578 27.1202 39.3338 21.3708 38.8164 21.1362C38.3311 20.9068 37.7871 20.8375 37.2644 20.9282C23.1524 23.2695 21.0298 31.4828 20.9444 31.8242C20.8271 32.3042 20.8484 32.8002 20.9978 33.2642C37.8298 85.4882 72.8111 95.1682 84.3098 98.3522C85.1951 98.5975 85.9258 98.7948 86.4804 98.9762C86.7471 99.0668 87.0244 99.1042 87.3018 99.1042C87.6804 99.1042 88.0591 99.0242 88.4058 98.8642C88.7578 98.7042 97.0671 94.7895 99.0991 82.0215C99.1898 81.4668 99.0991 80.8908 98.8431 80.3895C98.6618 80.0375 94.3151 71.7655 82.2618 68.8428C81.4191 68.6242 80.5551 68.8482 79.9044 69.4028C76.1018 72.6508 70.8484 76.1122 68.5818 76.4695C53.3871 69.0402 44.9018 54.7842 44.5818 52.0802C44.3951 50.5602 47.8778 45.2215 51.8831 40.8802C52.3898 40.3308 52.6458 39.5842 52.5764 38.8375Z" fill="white"/>
</mask>
<g mask="url(#mask0_33_3148)">
<rect x="10" y="10" width="100" height="100" fill="white"/>
</g>
<path d="M175.888 77.624C175.888 75.992 176.264 74.528 177.016 73.232C177.784 71.936 178.816 70.928 180.112 70.208C181.424 69.472 182.856 69.104 184.408 69.104C186.184 69.104 187.76 69.544 189.136 70.424C190.528 71.288 191.536 72.52 192.16 74.12H188.872C188.44 73.24 187.84 72.584 187.072 72.152C186.304 71.72 185.416 71.504 184.408 71.504C183.304 71.504 182.32 71.752 181.456 72.248C180.592 72.744 179.912 73.456 179.416 74.384C178.936 75.312 178.696 76.392 178.696 77.624C178.696 78.856 178.936 79.936 179.416 80.864C179.912 81.792 180.592 82.512 181.456 83.024C182.32 83.52 183.304 83.768 184.408 83.768C185.416 83.768 186.304 83.552 187.072 83.12C187.84 82.688 188.44 82.032 188.872 81.152H192.16C191.536 82.752 190.528 83.984 189.136 84.848C187.76 85.712 186.184 86.144 184.408 86.144C182.84 86.144 181.408 85.784 180.112 85.064C178.816 84.328 177.784 83.312 177.016 82.016C176.264 80.72 175.888 79.256 175.888 77.624ZM205.419 82.592H198.435L197.235 86H194.379L200.355 69.296H203.523L209.499 86H206.619L205.419 82.592ZM204.651 80.36L201.939 72.608L199.203 80.36H204.651ZM214.833 83.792H220.473V86H212.097V69.32H214.833V83.792ZM225.497 83.792H231.137V86H222.761V69.32H225.497V83.792ZM253.363 86H250.627L242.395 73.544V86H239.659V69.296H242.395L250.627 81.728V69.296H253.363V86ZM264.564 86.168C263.012 86.168 261.58 85.808 260.268 85.088C258.972 84.352 257.94 83.336 257.172 82.04C256.42 80.728 256.044 79.256 256.044 77.624C256.044 75.992 256.42 74.528 257.172 73.232C257.94 71.936 258.972 70.928 260.268 70.208C261.58 69.472 263.012 69.104 264.564 69.104C266.132 69.104 267.564 69.472 268.86 70.208C270.172 70.928 271.204 71.936 271.956 73.232C272.708 74.528 273.084 75.992 273.084 77.624C273.084 79.256 272.708 80.728 271.956 82.04C271.204 83.336 270.172 84.352 268.86 85.088C267.564 85.808 266.132 86.168 264.564 86.168ZM264.564 83.792C265.668 83.792 266.652 83.544 267.516 83.048C268.38 82.536 269.052 81.816 269.532 80.888C270.028 79.944 270.276 78.856 270.276 77.624C270.276 76.392 270.028 75.312 269.532 74.384C269.052 73.456 268.38 72.744 267.516 72.248C266.652 71.752 265.668 71.504 264.564 71.504C263.46 71.504 262.476 71.752 261.612 72.248C260.748 72.744 260.068 73.456 259.572 74.384C259.092 75.312 258.852 76.392 258.852 77.624C258.852 78.856 259.092 79.944 259.572 80.888C260.068 81.816 260.748 82.536 261.612 83.048C262.476 83.544 263.46 83.792 264.564 83.792ZM297.497 69.32L292.553 86H289.457L285.953 73.376L282.233 86L279.161 86.024L274.433 69.32H277.337L280.793 82.904L284.537 69.32H287.609L291.089 82.832L294.569 69.32H297.497Z" fill="black"/>
</svg>
