<svg width="120" height="120" viewBox="0 0 120 120" fill="none" xmlns="http://www.w3.org/2000/svg">
<circle cx="60" cy="60" r="60" fill="#FFA602"/>
<rect x="10" y="10" width="100" height="100" rx="50" fill="#FFA602"/>
<rect x="10" y="10" width="100" height="100" fill="#FF0000" fill-opacity="0.01"/>
<path d="M60 20C82.0962 20 100 37.2886 99.9619 58.6348C99.9619 66.3077 97.6344 73.4613 93.6152 79.4805C93.4422 79.692 93.2886 79.9424 93.1348 80.1924C92.6732 81.0193 92.3848 81.9808 92.3848 83L96.6348 100L80.4805 94.0576C79.7691 93.7501 78.9809 93.5958 78.1543 93.5957C77.4043 93.5957 76.673 93.7305 76 93.9805C76 93.9996 75.981 94 75.9619 94C75.8465 94.0385 75.7501 94.0771 75.6348 94.1348C70.8463 96.0963 65.5577 97.1924 60 97.1924C37.9038 97.1924 20 79.9226 20 58.5957C20.0003 37.2882 37.904 20 60 20ZM41.5381 53.8457C38.1344 53.8459 35.3848 56.5963 35.3848 60C35.3848 63.4037 38.1344 66.1541 41.5381 66.1543C44.9419 66.1543 47.6924 63.4038 47.6924 60C47.6924 56.5962 44.9419 53.8457 41.5381 53.8457ZM60 53.8457C56.5962 53.8457 53.8457 56.5962 53.8457 60C53.8457 63.4038 56.5962 66.1543 60 66.1543C63.4038 66.1543 66.1543 63.4038 66.1543 60C66.1543 56.5962 63.4038 53.8457 60 53.8457ZM78.4619 53.8457C75.0581 53.8457 72.3076 56.5962 72.3076 60C72.3076 63.4038 75.0581 66.1543 78.4619 66.1543C81.8656 66.1541 84.6152 63.4037 84.6152 60C84.6152 56.5963 81.8656 53.8459 78.4619 53.8457Z" fill="black"/>
<mask id="mask0_33_3165" style="mask-type:luminance" maskUnits="userSpaceOnUse" x="20" y="20" width="80" height="80">
<path d="M60 20C82.0962 20 100 37.2886 99.9619 58.6348C99.9619 66.3077 97.6344 73.4613 93.6152 79.4805C93.4422 79.692 93.2886 79.9424 93.1348 80.1924C92.6732 81.0193 92.3848 81.9808 92.3848 83L96.6348 100L80.4805 94.0576C79.7691 93.7501 78.9809 93.5958 78.1543 93.5957C77.4043 93.5957 76.673 93.7305 76 93.9805C76 93.9996 75.981 94 75.9619 94C75.8465 94.0385 75.7501 94.0771 75.6348 94.1348C70.8463 96.0963 65.5577 97.1924 60 97.1924C37.9038 97.1924 20 79.9226 20 58.5957C20.0003 37.2882 37.904 20 60 20ZM41.5381 53.8457C38.1344 53.8459 35.3848 56.5963 35.3848 60C35.3848 63.4037 38.1344 66.1541 41.5381 66.1543C44.9419 66.1543 47.6924 63.4038 47.6924 60C47.6924 56.5962 44.9419 53.8457 41.5381 53.8457ZM60 53.8457C56.5962 53.8457 53.8457 56.5962 53.8457 60C53.8457 63.4038 56.5962 66.1543 60 66.1543C63.4038 66.1543 66.1543 63.4038 66.1543 60C66.1543 56.5962 63.4038 53.8457 60 53.8457ZM78.4619 53.8457C75.0581 53.8457 72.3076 56.5962 72.3076 60C72.3076 63.4038 75.0581 66.1543 78.4619 66.1543C81.8656 66.1541 84.6152 63.4037 84.6152 60C84.6152 56.5963 81.8656 53.8459 78.4619 53.8457Z" fill="white"/>
</mask>
<g mask="url(#mask0_33_3165)">
<rect x="10" y="10" width="100" height="100" fill="white"/>
</g>
</svg>
