<svg width="26" height="34" viewBox="0 0 26 34" fill="none" xmlns="http://www.w3.org/2000/svg">
<mask id="mask0_12_5904" style="mask-type:luminance" maskUnits="userSpaceOnUse" x="0" y="4" width="26" height="26">
<path d="M25.6282 4.37158H0.371094V29.6287H25.6282V4.37158Z" fill="white"/>
</mask>
<g mask="url(#mask0_12_5904)">
<path d="M22.0283 13.9985H20.0146C19.3417 13.0105 18.4464 12.1846 17.4034 11.5956C16.2354 10.936 14.9091 10.5874 13.568 10.5874H12.9997C12.5875 10.5874 12.2533 10.9215 12.2533 11.3337V13.9985H3.97105C2.15258 13.9985 0.645686 15.3542 0.405394 17.1077C0.402696 17.1246 0.400384 17.1416 0.398842 17.1589C0.381307 17.3033 0.371094 17.4497 0.371094 17.5986V20.4523C0.371094 20.8645 0.70523 21.1986 1.11741 21.1986H3.72864C4.06066 22.4812 5.22782 23.431 6.61274 23.431C7.99764 23.431 9.16481 22.4812 9.4968 21.1986H16.5025C16.8347 22.4812 18.0017 23.431 19.3866 23.431C20.7715 23.431 21.9385 22.4812 22.2707 21.1986H24.8819C25.2941 21.1986 25.6282 20.8645 25.6282 20.4523V17.5986C25.6282 15.6135 24.0133 13.9985 22.0283 13.9985ZM13.746 12.0827C15.3955 12.13 16.96 12.8334 18.0948 13.9985H13.746V12.0827ZM1.86372 17.969H3.01644C3.42861 17.969 3.76275 17.6349 3.76275 17.2227C3.76275 16.8105 3.42861 16.4764 3.01644 16.4764H2.1888C2.56244 15.885 3.22147 15.4913 3.97105 15.4913H12.2533V19.706H9.4968C9.16459 18.4234 7.99764 17.4734 6.61274 17.4734C5.22782 17.4734 4.06085 18.4234 3.72864 19.706H1.86372V17.969ZM8.09881 20.4523C8.09881 21.2718 7.43225 21.9384 6.61274 21.9384C5.79319 21.9384 5.12666 21.2718 5.12666 20.4523C5.12666 19.6328 5.79319 18.9662 6.61274 18.9662C7.43225 18.9662 8.09881 19.6328 8.09881 20.4523ZM20.8727 20.4523C20.8727 21.2718 20.2061 21.9384 19.3866 21.9384C18.5671 21.9384 17.9005 21.2718 17.9005 20.4523C17.9005 19.6328 18.5671 18.9662 19.3866 18.9662C20.2061 18.9662 20.8727 19.6328 20.8727 20.4523ZM22.2707 19.706C21.9387 18.4234 20.7715 17.4734 19.3866 17.4734C18.0017 17.4734 16.8345 18.4234 16.5025 19.706H13.746V15.4913H22.0283C22.7646 15.4913 23.4138 15.8714 23.7907 16.4452H22.6356C22.2235 16.4452 21.8894 16.7793 21.8894 17.1915C21.8894 17.6037 22.2235 17.938 22.6356 17.938H24.1356V19.706H22.2707Z" fill="#050B20"/>
</g>
</svg>
