<svg width="36" height="34" viewBox="0 0 36 34" fill="none" xmlns="http://www.w3.org/2000/svg">
<mask id="mask0_4_565" style="mask-type:luminance" maskUnits="userSpaceOnUse" x="1" y="0" width="34" height="34">
<path d="M35 0H1V34H35V0Z" fill="white"/>
</mask>
<g mask="url(#mask0_4_565)">
<path d="M30.1539 12.9591H27.4432C26.5374 11.6291 25.3322 10.5173 23.9281 9.72437C22.3558 8.83644 20.5704 8.36719 18.765 8.36719H18C17.4451 8.36719 16.9953 8.81699 16.9953 9.37184V12.9591H5.8461C3.39815 12.9591 1.36964 14.784 1.04617 17.1445C1.04254 17.1673 1.03943 17.1901 1.03735 17.2135C1.01375 17.4078 1 17.6049 1 17.8054V21.6469C1 22.2017 1.4498 22.6515 2.00465 22.6515H5.51978C5.96672 24.3781 7.5379 25.6567 9.40221 25.6567C11.2665 25.6567 12.8377 24.3781 13.2846 22.6515H22.7154C23.1626 24.3781 24.7335 25.6567 26.5978 25.6567C28.4621 25.6567 30.033 24.3781 30.4802 22.6515H33.9953C34.5502 22.6515 35 22.2017 35 21.6469V17.8054C35 15.1331 32.826 12.9591 30.1539 12.9591ZM19.0047 10.3801C21.2251 10.4437 23.3312 11.3907 24.8588 12.9591H19.0047V10.3801ZM3.00931 18.304H4.56104C5.11589 18.304 5.56569 17.8542 5.56569 17.2993C5.56569 16.7445 5.11589 16.2947 4.56104 16.2947H3.44691C3.94989 15.4986 4.83704 14.9686 5.8461 14.9686H16.9953V20.6422H13.2846C12.8374 18.9157 11.2665 17.6368 9.40221 17.6368C7.5379 17.6368 5.96698 18.9157 5.51978 20.6422H3.00931V18.304ZM11.4027 21.6469C11.4027 22.7501 10.5054 23.6474 9.40221 23.6474C8.29898 23.6474 7.40172 22.7501 7.40172 21.6469C7.40172 20.5437 8.29898 19.6464 9.40221 19.6464C10.5054 19.6464 11.4027 20.5437 11.4027 21.6469ZM28.5983 21.6469C28.5983 22.7501 27.701 23.6474 26.5978 23.6474C25.4946 23.6474 24.5973 22.7501 24.5973 21.6469C24.5973 20.5437 25.4946 19.6464 26.5978 19.6464C27.701 19.6464 28.5983 20.5437 28.5983 21.6469ZM30.4802 20.6422C30.0333 18.9157 28.4621 17.6368 26.5978 17.6368C24.7335 17.6368 23.1623 18.9157 22.7154 20.6422H19.0047V14.9686H30.1539C31.1451 14.9686 32.019 15.4802 32.5264 16.2527H30.9715C30.4167 16.2527 29.9669 16.7025 29.9669 17.2573C29.9669 17.8122 30.4167 18.2622 30.9715 18.2622H32.9907V20.6422H30.4802Z" fill="#050B20"/>
</g>
</svg>
