<svg width="26" height="34" viewBox="0 0 26 34" fill="none" xmlns="http://www.w3.org/2000/svg">
<path d="M20.3125 14.5626H19.3619C19.2549 14.5633 19.1489 14.5428 19.05 14.5023C18.9509 14.4619 18.8609 14.4023 18.785 14.327L16.6237 12.1658C16.0908 11.6328 15.4572 11.2111 14.7597 10.9251C14.0623 10.6392 13.315 10.4947 12.5613 10.5001H5.6875C4.61006 10.5001 3.57674 10.9282 2.81488 11.69C2.05301 12.4519 1.625 13.4852 1.625 14.5626V18.6251C1.625 19.2716 1.88181 19.8916 2.33893 20.3488C2.79605 20.8058 3.41603 21.0626 4.0625 21.0626C4.0625 21.8168 4.36211 22.5402 4.89542 23.0735C5.42872 23.6068 6.15204 23.9064 6.90625 23.9064C7.66044 23.9064 8.38378 23.6068 8.91708 23.0735C9.45039 22.5402 9.75 21.8168 9.75 21.0626H15.5188C15.6086 21.7424 15.9424 22.3664 16.4581 22.8184C16.9738 23.2705 17.6361 23.5197 18.3219 23.5197C19.0076 23.5197 19.67 23.2705 20.1856 22.8184C20.7014 22.3664 21.0351 21.7424 21.125 21.0626H21.9375C22.584 21.0626 23.2039 20.8058 23.6611 20.3488C24.1182 19.8916 24.375 19.2716 24.375 18.6251C24.375 17.5477 23.947 16.5144 23.1851 15.7525C22.4232 14.9907 21.39 14.5626 20.3125 14.5626ZM12.6019 12.1251C13.1357 12.1242 13.6645 12.2285 14.1581 12.432C14.6516 12.6356 15.1002 12.9344 15.4781 13.3114L16.7294 14.5626H6.695C6.54358 14.5637 6.39488 14.5224 6.26567 14.4435C6.13646 14.3645 6.03189 14.251 5.96375 14.1158L5.02125 12.2308C5.23674 12.1622 5.46136 12.1266 5.6875 12.1251H12.6019ZM3.25 18.6251V14.5626C3.25044 14.0692 3.4006 13.5876 3.68063 13.1814L4.49313 14.8064C4.69243 15.2209 5.00496 15.5706 5.39459 15.815C5.78422 16.0594 6.23505 16.1886 6.695 16.1876H11.375V19.4376H9.46561C9.23742 18.9516 8.87548 18.5406 8.42224 18.2528C7.969 17.9649 7.44319 17.812 6.90625 17.812C6.36931 17.812 5.84347 17.9649 5.39023 18.2528C4.93699 18.5406 4.5751 18.9516 4.34687 19.4376H4.0625C3.84701 19.4376 3.64035 19.352 3.48798 19.1997C3.3356 19.0473 3.25 18.8406 3.25 18.6251ZM6.90625 21.8751C6.66521 21.8751 6.42957 21.8037 6.22915 21.6698C6.02873 21.5358 5.87251 21.3455 5.78027 21.1228C5.68803 20.9001 5.66389 20.655 5.71092 20.4187C5.75795 20.1822 5.87402 19.965 6.04447 19.7946C6.21491 19.6242 6.43207 19.5081 6.66848 19.4611C6.9049 19.4141 7.14995 19.4381 7.37264 19.5304C7.59534 19.6227 7.7857 19.7789 7.9196 19.9793C8.0535 20.1797 8.125 20.4154 8.125 20.6564C8.125 20.9796 7.99661 21.2896 7.76804 21.5181C7.53948 21.7467 7.22948 21.8751 6.90625 21.8751ZM18.2812 21.8751C18.0402 21.8751 17.8046 21.8037 17.6041 21.6698C17.4037 21.5358 17.2475 21.3455 17.1553 21.1228C17.063 20.9001 17.0389 20.655 17.0859 20.4187C17.1329 20.1822 17.249 19.965 17.4195 19.7946C17.5899 19.6242 17.8071 19.5081 18.0435 19.4611C18.2799 19.4141 18.5249 19.4381 18.7477 19.5304C18.9704 19.6227 19.1607 19.7789 19.2946 19.9793C19.4285 20.1797 19.5 20.4154 19.5 20.6564C19.5 20.9796 19.3716 21.2896 19.143 21.5181C18.9145 21.7467 18.6045 21.8751 18.2812 21.8751ZM21.9375 19.4376H20.8406C20.6124 18.9516 20.2505 18.5406 19.7972 18.2528C19.344 17.9649 18.8182 17.812 18.2812 17.812C17.7443 17.812 17.2185 17.9649 16.7653 18.2528C16.312 18.5406 15.9501 18.9516 15.7219 19.4376H13V16.1876H20.3125C20.6533 16.1894 20.9898 16.2627 21.3005 16.4026C21.6112 16.5427 21.8891 16.7462 22.1162 17.0001H21.9375C21.722 17.0001 21.5154 17.0858 21.363 17.2381C21.2106 17.3905 21.125 17.5972 21.125 17.8126C21.125 18.0281 21.2106 18.2348 21.363 18.3872C21.5154 18.5395 21.722 18.6251 21.9375 18.6251H22.75C22.75 18.8406 22.6644 19.0473 22.512 19.1997C22.3596 19.352 22.153 19.4376 21.9375 19.4376Z" fill="#050B20"/>
</svg>
