<svg width="26" height="34" viewBox="0 0 26 34" fill="none" xmlns="http://www.w3.org/2000/svg">
<path d="M23.3537 16.0413L20.1143 14.7461L18.2317 10.3529C17.8466 9.45512 16.9674 8.875 15.9908 8.875H8.53855C7.45631 8.875 6.49188 9.60219 6.1945 10.643L5.07487 14.5625H3.25C2.35381 14.5625 1.625 15.2913 1.625 16.1875V21.0625C1.625 21.9587 2.35381 22.6875 3.25 22.6875H4.99038C5.35356 24.085 6.61538 25.125 8.125 25.125C9.63461 25.125 10.8964 24.085 11.2596 22.6875H14.7404C15.1036 24.085 16.3654 25.125 17.875 25.125C19.3846 25.125 20.6464 24.085 21.0096 22.6875H22.75C23.6462 22.6875 24.375 21.9587 24.375 21.0625V17.5501C24.375 16.8814 23.9744 16.2891 23.3537 16.0413ZM8.125 23.5C7.22881 23.5 6.5 22.7712 6.5 21.875C6.5 20.9788 7.22881 20.25 8.125 20.25C9.02116 20.25 9.75 20.9788 9.75 21.875C9.75 22.7712 9.02116 23.5 8.125 23.5ZM17.875 23.5C16.9788 23.5 16.25 22.7712 16.25 21.875C16.25 20.9788 16.9788 20.25 17.875 20.25C18.7712 20.25 19.5 20.9788 19.5 21.875C19.5 22.7712 18.7712 23.5 17.875 23.5ZM22.75 21.0625H21.0096C20.6464 19.665 19.3846 18.625 17.875 18.625C16.3654 18.625 15.1036 19.665 14.7404 21.0625H11.2596C10.8964 19.665 9.63461 18.625 8.125 18.625C6.61538 18.625 5.35356 19.665 4.99038 21.0625H3.25V16.1875H5.6875C6.04988 16.1875 6.36919 15.947 6.46831 15.5984L7.75611 11.0899C7.85605 10.7421 8.177 10.5 8.53855 10.5H15.9908C16.3158 10.5 16.6091 10.6934 16.7375 10.9924L18.7525 15.6951C18.837 15.8934 18.9971 16.0494 19.1969 16.1298L22.75 17.5501V21.0625Z" fill="#050B20"/>
<path d="M11.7368 18.4886C11.3638 18.24 11.2631 17.7355 11.5117 17.3617L12.2942 16.1876H11.3752C11.0755 16.1876 10.8 16.0227 10.6586 15.7586C10.5172 15.4946 10.5327 15.1736 10.6992 14.925L12.3242 12.4875C12.5728 12.1138 13.0775 12.013 13.4512 12.2625C13.8241 12.5111 13.9248 13.0156 13.6762 13.3894L12.8938 14.5626H13.8127C14.1126 14.5626 14.388 14.7276 14.5293 14.9916C14.6707 15.2557 14.6553 15.5766 14.4887 15.8253L12.8637 18.2628C12.6143 18.6373 12.109 18.7373 11.7368 18.4886Z" fill="#050B20"/>
</svg>
