<svg width="26" height="34" viewBox="0 0 26 34" fill="none" xmlns="http://www.w3.org/2000/svg">
<mask id="mask0_12_5892" style="mask-type:luminance" maskUnits="userSpaceOnUse" x="0" y="4" width="26" height="26">
<path d="M25.6282 4.37158H0.371094V29.6287H25.6282V4.37158Z" fill="white"/>
</mask>
<g mask="url(#mask0_12_5892)">
<path d="M23.2206 15.9506L18.8607 15.2235C18.6057 14.8095 18.0989 14.0604 17.3621 13.31C15.8914 11.8122 14.1981 11.0205 12.4653 11.0205H5.36495C4.21161 11.0205 3.14228 11.6441 2.57424 12.6479L0.617647 16.1058C0.614489 16.1113 0.612122 16.1171 0.609113 16.1228C0.457767 16.3936 0.371094 16.7053 0.371094 17.0371V20.6807C0.371094 21.0894 0.702396 21.4206 1.11105 21.4206H3.48093C3.82876 22.3307 4.71532 22.9796 5.7519 22.9796C6.78848 22.9796 7.67501 22.3307 8.02289 21.4206H17.2132C17.561 22.3307 18.4475 22.9796 19.4841 22.9796C20.5206 22.9796 21.4072 22.3307 21.755 21.4206H24.8883C25.2969 21.4206 25.6282 21.0894 25.6282 20.6807V18.7218C25.6282 17.3337 24.594 16.1444 23.2206 15.9506ZM17.0093 15.1564H11.6789V12.5004H12.4653C14.5626 12.5004 16.1466 14.051 17.0093 15.1564ZM6.74014 12.5004H10.199V15.1564H6.74014V12.5004ZM3.86225 13.3767C4.15083 12.8667 4.67975 12.5394 5.26022 12.504V15.1564H2.85522L3.86225 13.3767ZM5.7519 21.4996C5.22885 21.4996 4.80333 21.0813 4.80333 20.5669C4.80333 20.0526 5.22885 19.6342 5.7519 19.6342C6.27495 19.6342 6.70047 20.0526 6.70047 20.5669C6.70047 21.0813 6.27495 21.4996 5.7519 21.4996ZM19.4841 21.4996C18.9609 21.4996 18.5354 21.0813 18.5354 20.5669C18.5354 20.0526 18.961 19.6342 19.4841 19.6342C20.0071 19.6342 20.4326 20.0526 20.4326 20.5669C20.4326 21.0813 20.0071 21.4996 19.4841 21.4996ZM21.829 19.9407C21.5508 18.9131 20.6051 18.1543 19.4841 18.1543C18.3629 18.1543 17.4174 18.9131 17.1389 19.9407H8.09688C7.81861 18.9131 6.87298 18.1543 5.7519 18.1543C4.63082 18.1543 3.6852 18.9131 3.40683 19.9407H1.85101V17.0371C1.85101 16.8161 2.03076 16.6363 2.25176 16.6363H18.3356L22.987 17.412C22.9941 17.4132 23.0013 17.4143 23.0085 17.4153C23.1343 17.4325 23.2541 17.4676 23.3656 17.5176C23.056 17.6061 22.8292 17.8905 22.8292 18.2285C22.8292 18.6372 23.1605 18.9685 23.5691 18.9685H24.1483V19.9408L21.829 19.9407Z" fill="#050B20"/>
</g>
</svg>
