<svg width="34" height="34" viewBox="0 0 34 34" fill="none" xmlns="http://www.w3.org/2000/svg">
<mask id="mask0_4_544" style="mask-type:luminance" maskUnits="userSpaceOnUse" x="0" y="0" width="34" height="34">
<path d="M34 0H0V34H34V0Z" fill="white"/>
</mask>
<g mask="url(#mask0_4_544)">
<path d="M32.8913 21.4348H31.7826V15.8914C31.7826 14.0573 30.2905 12.5653 28.4565 12.5653H24.8209L23.3616 8.1873C22.908 6.82704 21.6399 5.91309 20.2061 5.91309C20.0334 5.91309 8.04731 5.91309 7.76083 5.91309C6.31543 5.91309 5.08313 6.84005 4.62546 8.13046H3.32609C1.49208 8.13046 0 9.62254 0 11.4565V15.8914C0 17.7254 1.49208 19.2174 3.32609 19.2174H4.43481V21.4348H3.32609C2.71382 21.4348 2.21737 21.9312 2.21737 22.5435C2.21737 23.1559 2.71376 23.6523 3.32609 23.6523C4.36442 23.6523 5.6104 23.6523 6.65218 23.6523C6.65218 26.0976 8.64164 28.0871 11.087 28.0871C13.5323 28.0871 15.5218 26.0976 15.5218 23.6523H20.6957C20.6957 26.0976 22.6852 28.0871 25.1305 28.0871C27.5759 28.0871 29.5653 26.0976 29.5653 23.6523C30.6074 23.6523 31.8538 23.6523 32.8914 23.6523C33.5037 23.6523 34.0001 23.1559 34.0001 22.5435C34.0001 21.9312 33.5036 21.4348 32.8913 21.4348ZM4.43481 17H3.32609C2.71475 17 2.21737 16.5026 2.21737 15.8913V11.4565C2.21737 10.8451 2.71475 10.3478 3.32609 10.3478H4.43481C4.43481 11.0542 4.43481 16.315 4.43481 17ZM15.5217 8.13046H17.3696H20.2061C20.6841 8.13046 21.1068 8.43513 21.2579 8.88848L22.4834 12.5652H15.5217V8.13046ZM6.65218 9.23911C6.65218 8.62777 7.14956 8.13039 7.7609 8.13039H13.3044V12.5652H6.65218V9.23911ZM11.087 25.8696C9.86432 25.8696 8.86962 24.8749 8.86962 23.6522C8.86962 22.4295 9.86432 21.4348 11.087 21.4348C12.3097 21.4348 13.3044 22.4295 13.3044 23.6522C13.3044 24.8749 12.3097 25.8696 11.087 25.8696ZM25.1304 25.8696C23.9078 25.8696 22.9131 24.8749 22.9131 23.6522C22.9131 22.4295 23.9078 21.4348 25.1304 21.4348C26.3531 21.4348 27.3478 22.4295 27.3478 23.6522C27.3478 24.8749 26.3531 25.8696 25.1304 25.8696ZM29.5652 21.4348H28.9686C28.2005 20.1106 26.7683 19.2174 25.1304 19.2174C23.4926 19.2174 22.0604 20.1106 21.2923 21.4348H14.9251C14.1571 20.1106 12.7248 19.2174 11.087 19.2174C9.44914 19.2174 8.01689 20.1106 7.24884 21.4348H6.65225V18.1087V14.7826C8.46022 14.7826 27.2694 14.7826 28.4566 14.7826C29.0679 14.7826 29.5653 15.28 29.5653 15.8914L29.5652 21.4348Z" fill="#050B20"/>
<path d="M18.8481 17H16.6307C16.0184 17 15.522 17.4964 15.522 18.1087C15.522 18.721 16.0184 19.2174 16.6307 19.2174H18.8481C19.4603 19.2174 19.9568 18.7211 19.9568 18.1087C19.9568 17.4964 19.4604 17 18.8481 17Z" fill="#050B20"/>
</g>
</svg>
