<svg width="26" height="34" viewBox="0 0 26 34" fill="none" xmlns="http://www.w3.org/2000/svg">
<mask id="mask0_12_5883" style="mask-type:luminance" maskUnits="userSpaceOnUse" x="0" y="4" width="26" height="26">
<path d="M26 4H0V30H26V4Z" fill="white"/>
</mask>
<g mask="url(#mask0_12_5883)">
<path d="M25.1522 20.3915H24.3043V16.1524C24.3043 14.7499 23.1633 13.609 21.7609 13.609H18.9807L17.8648 10.2611C17.5179 9.22088 16.5482 8.52197 15.4517 8.52197C15.3197 8.52197 6.15383 8.52197 5.93475 8.52197C4.82945 8.52197 3.8871 9.23082 3.53712 10.2176H2.54348C1.141 10.2176 0 11.3586 0 12.7611V16.1524C0 17.5549 1.141 18.6959 2.54348 18.6959H3.39133V20.3915H2.54348C2.07527 20.3915 1.69564 20.7711 1.69564 21.2393C1.69564 21.7077 2.07523 22.0873 2.54348 22.0873C3.3375 22.0873 4.29031 22.0873 5.08696 22.0873C5.08696 23.9572 6.60831 25.4786 8.47829 25.4786C10.3482 25.4786 11.8696 23.9572 11.8696 22.0873H15.8261C15.8261 23.9572 17.3475 25.4786 19.2174 25.4786C21.0875 25.4786 22.6088 23.9572 22.6088 22.0873C23.4057 22.0873 24.3588 22.0873 25.1522 22.0873C25.6205 22.0873 26.0001 21.7077 26.0001 21.2393C26.0001 20.7711 25.6204 20.3915 25.1522 20.3915ZM3.39133 17.0002H2.54348C2.07599 17.0002 1.69564 16.6198 1.69564 16.1524V12.7611C1.69564 12.2935 2.07599 11.9132 2.54348 11.9132H3.39133C3.39133 12.4534 3.39133 16.4764 3.39133 17.0002ZM11.8695 10.2176H13.2826H15.4517C15.8173 10.2176 16.1405 10.4506 16.256 10.7973L17.1932 13.6089H11.8695V10.2176ZM5.08696 11.0654C5.08696 10.5979 5.46731 10.2176 5.93481 10.2176H10.174V13.6089H5.08696V11.0654ZM8.47829 23.7828C7.5433 23.7828 6.78265 23.0222 6.78265 22.0872C6.78265 21.1522 7.5433 20.3915 8.47829 20.3915C9.4133 20.3915 10.174 21.1522 10.174 22.0872C10.174 23.0222 9.4133 23.7828 8.47829 23.7828ZM19.2174 23.7828C18.2824 23.7828 17.5218 23.0222 17.5218 22.0872C17.5218 21.1522 18.2824 20.3915 19.2174 20.3915C20.1524 20.3915 20.913 21.1522 20.913 22.0872C20.913 23.0222 20.1524 23.7828 19.2174 23.7828ZM22.6087 20.3915H22.1525C21.5651 19.3789 20.4699 18.6959 19.2174 18.6959C17.9649 18.6959 16.8697 19.3789 16.2823 20.3915H11.4133C10.826 19.3789 9.73073 18.6959 8.47829 18.6959C7.22581 18.6959 6.13056 19.3789 5.54323 20.3915H5.08701V17.848V15.3045C6.46958 15.3045 20.8531 15.3045 21.7609 15.3045C22.2284 15.3045 22.6088 15.6849 22.6088 16.1524L22.6087 20.3915Z" fill="#050B20"/>
<path d="M14.4136 17H12.7179C12.2497 17 11.8701 17.3796 11.8701 17.8478C11.8701 18.3161 12.2497 18.6957 12.7179 18.6957H14.4136C14.8818 18.6957 15.2614 18.3161 15.2614 17.8478C15.2614 17.3796 14.8818 17 14.4136 17Z" fill="#050B20"/>
</g>
</svg>
