<svg width="36" height="34" viewBox="0 0 36 34" fill="none" xmlns="http://www.w3.org/2000/svg">
<mask id="mask0_4_612" style="mask-type:luminance" maskUnits="userSpaceOnUse" x="1" y="0" width="34" height="34">
<path d="M35 0H1V34H35V0Z" fill="white"/>
</mask>
<g mask="url(#mask0_4_612)">
<path d="M32.7415 14.1559L30.7088 8.1182C30.1364 6.41887 28.5473 5.27734 26.7543 5.27734H23.2242C22.3084 5.27734 21.564 6.02242 21.564 6.9375V14.1545H1.99609C1.44625 14.1545 1 14.6008 1 15.1506V22.7541C1 24.0358 2.04258 25.0784 3.32422 25.0784H5.0727C5.52957 27.1602 7.38895 28.7227 9.60559 28.7227C11.8222 28.7227 13.6809 27.1602 14.1378 25.0784H23.8491C24.3059 27.1602 26.1646 28.7227 28.3813 28.7227C30.6026 28.7227 32.4646 27.1536 32.9168 25.0657C34.0856 24.9449 35 23.9541 35 22.7541V16.4787C35 15.219 33.9926 14.1904 32.7415 14.1559ZM26.7543 7.26953C27.6913 7.26953 28.5221 7.86586 28.8202 8.75371L30.6391 14.1545L23.5562 14.1546V7.26953H26.7543ZM2.99219 22.7541V16.1467H21.564V23.0862H14.1378C13.6809 21.005 11.8222 19.4425 9.60559 19.4425C7.38895 19.4425 5.52957 21.005 5.0727 23.0862H3.32422C3.14094 23.0862 2.99219 22.9374 2.99219 22.7541ZM9.60559 26.7305C7.72848 26.7305 6.44445 24.8191 7.15188 23.0862C7.54633 22.1186 8.49727 21.4346 9.60559 21.4346C10.7139 21.4346 11.6642 22.1186 12.0586 23.0862C12.7642 24.8147 11.4869 26.7305 9.60559 26.7305ZM23.5562 16.1468C24.3715 16.1468 31.6649 16.1467 32.6758 16.1467C32.8591 16.1467 33.0078 16.2955 33.0078 16.4787C32.964 22.9421 33.1103 22.8161 32.8949 23.0025C32.4068 20.9632 30.568 19.4425 28.3813 19.4425C26.1646 19.4425 24.3059 21.005 23.8491 23.0862H23.5562V16.1468ZM25.9282 25.0784C25.2208 23.3452 26.5055 21.4346 28.3813 21.4346C30.2492 21.4346 31.5465 23.3353 30.835 25.0784C29.9394 27.2767 26.8241 27.2774 25.9282 25.0784Z" fill="#050B20"/>
</g>
</svg>
