<svg width="47" height="40" viewBox="0 0 47 40" fill="none" xmlns="http://www.w3.org/2000/svg">
<rect width="47" height="40" rx="10" fill="black"/>
<rect width="47" height="40" fill="#FF0000" fill-opacity="0.01"/>
<path d="M23.499 4C33.8842 4 42.2993 10.9156 42.2812 19.4541C42.2812 22.5231 41.1876 25.3844 39.2988 27.792C39.2175 27.8766 39.1446 27.9771 39.0723 28.0771C38.8554 28.4079 38.7197 28.7926 38.7197 29.2002L40.7178 36L33.125 33.623C32.7906 33.5 32.4198 33.4385 32.0312 33.4385C31.6789 33.4385 31.3358 33.4928 31.0195 33.5928C31.0192 33.6 31.0098 33.5996 31.001 33.5996C30.9468 33.615 30.9019 33.6312 30.8477 33.6543C28.5971 34.4389 26.1111 34.877 23.499 34.877C13.1139 34.8769 4.69923 27.9692 4.69922 19.4385C4.69922 10.9155 13.1139 4.00009 23.499 4ZM14.8223 17.5381C13.2225 17.5381 11.9297 18.6385 11.9297 20C11.9297 21.3615 13.2225 22.4619 14.8223 22.4619C16.4221 22.4619 17.7148 21.3615 17.7148 20C17.7148 18.6385 16.4221 17.5381 14.8223 17.5381ZM23.499 17.5381C21.8993 17.5382 20.6064 18.6385 20.6064 20C20.6064 21.3615 21.8993 22.4618 23.499 22.4619C25.0988 22.4619 26.3916 21.3615 26.3916 20C26.3916 18.6385 25.0988 17.5381 23.499 17.5381ZM32.1758 17.5381C30.5761 17.5383 29.2842 18.6386 29.2842 20C29.2842 21.3614 30.5761 22.4617 32.1758 22.4619C33.7756 22.4619 35.0684 21.3615 35.0684 20C35.0684 18.6385 33.7756 17.5381 32.1758 17.5381Z" fill="#272525"/>
<mask id="mask0_182_3807" style="mask-type:luminance" maskUnits="userSpaceOnUse" x="4" y="4" width="39" height="32">
<path d="M23.499 4C33.8842 4 42.2993 10.9156 42.2812 19.4541C42.2812 22.5231 41.1876 25.3844 39.2988 27.792C39.2175 27.8766 39.1446 27.9771 39.0723 28.0771C38.8554 28.4079 38.7197 28.7926 38.7197 29.2002L40.7178 36L33.125 33.623C32.7906 33.5 32.4198 33.4385 32.0312 33.4385C31.6789 33.4385 31.3358 33.4928 31.0195 33.5928C31.0192 33.6 31.0098 33.5996 31.001 33.5996C30.9468 33.615 30.9019 33.6312 30.8477 33.6543C28.5971 34.4389 26.1111 34.877 23.499 34.877C13.1139 34.8769 4.69923 27.9692 4.69922 19.4385C4.69922 10.9155 13.1139 4.00009 23.499 4ZM14.8223 17.5381C13.2225 17.5381 11.9297 18.6385 11.9297 20C11.9297 21.3615 13.2225 22.4619 14.8223 22.4619C16.4221 22.4619 17.7148 21.3615 17.7148 20C17.7148 18.6385 16.4221 17.5381 14.8223 17.5381ZM23.499 17.5381C21.8993 17.5382 20.6064 18.6385 20.6064 20C20.6064 21.3615 21.8993 22.4618 23.499 22.4619C25.0988 22.4619 26.3916 21.3615 26.3916 20C26.3916 18.6385 25.0988 17.5381 23.499 17.5381ZM32.1758 17.5381C30.5761 17.5383 29.2842 18.6386 29.2842 20C29.2842 21.3614 30.5761 22.4617 32.1758 22.4619C33.7756 22.4619 35.0684 21.3615 35.0684 20C35.0684 18.6385 33.7756 17.5381 32.1758 17.5381Z" fill="white"/>
</mask>
<g mask="url(#mask0_182_3807)">
<rect width="47" height="40" fill="#F5F5F5"/>
</g>
</svg>
