<svg width="22" height="18" viewBox="0 0 22 18" fill="none" xmlns="http://www.w3.org/2000/svg">
<path d="M18.5833 0.604004H3.41667C1.77325 0.604004 0.4375 1.93975 0.4375 3.58317V14.4165C0.4375 16.0599 1.77325 17.3957 3.41667 17.3957H18.5833C20.2268 17.3957 21.5625 16.0599 21.5625 14.4165V3.58317C21.5625 1.93975 20.2268 0.604004 18.5833 0.604004ZM18.5833 2.229C18.6083 2.229 18.6299 2.242 18.6538 2.24309L11.8125 7.37484C11.3337 7.73342 10.6653 7.73342 10.1875 7.37484L3.34625 2.24309C3.37117 2.242 3.39175 2.229 3.41667 2.229H18.5833ZM19.9375 14.4165C19.9375 15.1629 19.3298 15.7707 18.5833 15.7707H3.41667C2.67025 15.7707 2.0625 15.1629 2.0625 14.4165V3.58317C2.0625 3.49975 2.09608 3.42717 2.11017 3.34809L9.2125 8.67484C9.739 9.06917 10.3695 9.26634 11 9.26634C11.6305 9.26634 12.2621 9.06917 12.7875 8.67484L19.8898 3.34809C19.9039 3.42717 19.9375 3.49975 19.9375 3.58317V14.4165Z" fill="#050B20"/>
</svg>
