<svg width="16" height="22" viewBox="0 0 16 22" fill="none" xmlns="http://www.w3.org/2000/svg">
<path d="M12.3333 0.4375H3.66667C2.02325 0.4375 0.6875 1.77325 0.6875 3.41667V18.5833C0.6875 20.2268 2.02325 21.5625 3.66667 21.5625H12.3333C13.9768 21.5625 15.3125 20.2268 15.3125 18.5833V3.41667C15.3125 1.77325 13.9768 0.4375 12.3333 0.4375ZM13.6875 18.5833C13.6875 19.3298 13.0798 19.9375 12.3333 19.9375H3.66667C2.92025 19.9375 2.3125 19.3298 2.3125 18.5833V3.41667C2.3125 2.67025 2.92025 2.0625 3.66667 2.0625H12.3333C13.0798 2.0625 13.6875 2.67025 13.6875 3.41667V18.5833ZM9.89583 4.5C9.89583 4.9485 9.53183 5.3125 9.08333 5.3125H6.91667C6.46817 5.3125 6.10417 4.9485 6.10417 4.5C6.10417 4.0515 6.46817 3.6875 6.91667 3.6875H9.08333C9.53183 3.6875 9.89583 4.0515 9.89583 4.5Z" fill="#050B20"/>
</svg>
