<svg width="45" height="43" viewBox="0 0 45 43" fill="none" xmlns="http://www.w3.org/2000/svg">
<path d="M21.5489 0.927047C21.8483 0.00573659 23.1517 0.00574017 23.4511 0.927051L28.0006 14.9291C28.1345 15.3411 28.5184 15.6201 28.9516 15.6201L43.6743 15.6201C44.643 15.6201 45.0458 16.8597 44.262 17.4291L32.3512 26.0828C32.0007 26.3375 31.8541 26.7888 31.9879 27.2008L36.5375 41.2029C36.8368 42.1242 35.7823 42.8903 34.9986 42.3209L23.0878 33.6672C22.7373 33.4125 22.2627 33.4125 21.9122 33.6672L10.0014 42.3209C9.21766 42.8903 8.16318 42.1242 8.46253 41.2029L13.0121 27.2008C13.1459 26.7888 12.9993 26.3375 12.6488 26.0828L0.737954 17.4291C-0.0457599 16.8597 0.357018 15.6201 1.32574 15.6201L16.0484 15.6201C16.4816 15.6201 16.8655 15.3411 16.9994 14.9291L21.5489 0.927047Z" fill="black"/>
</svg>
