<svg width="39" height="39" viewBox="0 0 39 39" fill="none" xmlns="http://www.w3.org/2000/svg">
<g clip-path="url(#clip0_182_3791)">
<rect width="39" height="39" fill="#F5F5F5"/>
<path d="M19.5 0C15.6433 0 11.8731 1.14365 8.66639 3.28634C5.45963 5.42903 2.96027 8.47451 1.48436 12.0377C0.00844908 15.6008 -0.377716 19.5216 0.374696 23.3043C1.12711 27.0869 2.9843 30.5615 5.71143 33.2886C8.43855 36.0157 11.9131 37.8729 15.6957 38.6253C19.4784 39.3777 23.3992 38.9916 26.9623 37.5156C30.5255 36.0397 33.571 33.5404 35.7137 30.3336C37.8563 27.1269 39 23.3567 39 19.5C38.9944 14.33 36.9382 9.37334 33.2824 5.71759C29.6267 2.06185 24.67 0.00559176 19.5 0V0ZM19.5 35.75C16.2861 35.75 13.1443 34.797 10.472 33.0114C7.79969 31.2258 5.71689 28.6879 4.48697 25.7186C3.25704 22.7493 2.93524 19.482 3.56225 16.3298C4.18926 13.1776 5.73692 10.2821 8.00952 8.00951C10.2821 5.73691 13.1776 4.18925 16.3298 3.56224C19.482 2.93523 22.7493 3.25703 25.7186 4.48696C28.6879 5.71688 31.2258 7.79969 33.0114 10.472C34.797 13.1443 35.75 16.2861 35.75 19.5C35.7453 23.8083 34.0317 27.9388 30.9853 30.9853C27.9388 34.0317 23.8083 35.7453 19.5 35.75Z" fill="black"/>
<path d="M19.4995 9.75C19.0685 9.75 18.6552 9.9212 18.3504 10.226C18.0457 10.5307 17.8745 10.944 17.8745 11.375V18.4031L12.3966 21.8351C12.0303 22.064 11.7699 22.429 11.6726 22.8498C11.5754 23.2707 11.6494 23.7129 11.8782 24.0792C12.1071 24.4456 12.4721 24.706 12.8929 24.8032C13.3138 24.9004 13.756 24.8265 14.1224 24.5976L20.3624 20.6976C20.5981 20.5499 20.792 20.3441 20.9255 20.1C21.0589 19.8559 21.1274 19.5816 21.1245 19.3034V11.375C21.1245 10.944 20.9533 10.5307 20.6485 10.226C20.3438 9.9212 19.9305 9.75 19.4995 9.75Z" fill="black"/>
</g>
<defs>
<clipPath id="clip0_182_3791">
<rect width="39" height="39" fill="white"/>
</clipPath>
</defs>
</svg>
