<svg xmlns="http://www.w3.org/2000/svg" xmlns:xlink="http://www.w3.org/1999/xlink" width="500" zoomAndPan="magnify" viewBox="0 0 375 374.999991" height="500" preserveAspectRatio="xMidYMid meet" version="1.0"><defs><clipPath id="5510a792f0"><path d="M 78.695312 78.695312 L 250 78.695312 L 250 247 L 78.695312 247 Z M 78.695312 78.695312 " clip-rule="nonzero"/></clipPath><clipPath id="7fce24b1ce"><path d="M 113 128 L 296.195312 128 L 296.195312 296.195312 L 113 296.195312 Z M 113 128 " clip-rule="nonzero"/></clipPath><clipPath id="5d6fb50297"><path d="M 78.695312 118 L 211 118 L 211 247 L 78.695312 247 Z M 78.695312 118 " clip-rule="nonzero"/></clipPath></defs><g clip-path="url(#5510a792f0)"><path fill="#ffa602" d="M 249.785156 78.722656 L 249.785156 119.023438 C 242.96875 111.339844 234.261719 105.28125 223.765625 100.792969 C 213.273438 96.359375 201.644531 94.140625 189.042969 94.140625 C 176.546875 94.140625 165.511719 96.25 155.9375 100.414062 C 146.363281 104.632812 138.898438 110.691406 133.492188 118.75 C 128.082031 126.808594 125.429688 136.382812 125.429688 147.472656 C 125.429688 156.722656 126.945312 164.347656 130.027344 170.40625 C 133.113281 176.464844 137.167969 181.496094 142.199219 185.550781 C 147.230469 189.554688 152.746094 192.910156 158.75 195.558594 C 164.753906 198.210938 170.757812 200.535156 176.816406 202.589844 C 182.875 204.648438 188.445312 206.808594 193.476562 209.027344 C 198.507812 211.246094 202.5625 213.894531 205.648438 216.980469 C 208.730469 220.0625 210.246094 224.066406 210.246094 229.042969 C 210.246094 234.503906 207.917969 238.777344 203.214844 241.859375 C 198.507812 244.945312 191.910156 246.457031 183.363281 246.457031 C 173.949219 246.457031 165.730469 244.621094 158.589844 240.941406 C 151.503906 237.261719 145.011719 232.070312 139.222656 225.417969 L 98.871094 225.417969 C 87.730469 225.472656 78.695312 216.4375 78.695312 205.296875 L 78.695312 78.722656 Z M 249.785156 78.722656 " fill-opacity="1" fill-rule="nonzero"/></g><g clip-path="url(#7fce24b1ce)"><path fill="#ffffff" d="M 296.300781 165.105469 L 296.300781 296.277344 L 113.097656 296.277344 L 113.097656 251.328125 C 121.96875 261.226562 131.761719 268.636719 142.46875 273.503906 C 153.125 278.371094 165.945312 280.804688 180.820312 280.804688 C 202.511719 280.804688 219.546875 275.882812 231.828125 266.039062 C 244.160156 256.195312 250.273438 242.671875 250.273438 225.417969 C 250.273438 216.003906 248.757812 208.109375 245.675781 201.671875 C 242.589844 195.234375 238.535156 189.988281 233.503906 185.769531 C 228.472656 181.605469 222.957031 178.140625 216.953125 175.382812 C 211.328125 172.789062 205.648438 170.515625 199.914062 168.566406 C 199.589844 168.460938 199.210938 168.351562 198.886719 168.191406 C 192.828125 166.132812 187.257812 164.078125 182.226562 162.023438 C 177.195312 159.96875 173.140625 157.535156 170.054688 154.722656 C 166.972656 151.910156 165.457031 148.175781 165.457031 143.578125 C 165.457031 138.601562 167.511719 134.816406 171.625 132.164062 C 175.734375 129.515625 181.304688 128.21875 188.285156 128.21875 C 195.316406 128.21875 201.589844 129.570312 207.109375 132.328125 C 212.679688 135.085938 218.195312 139.25 223.660156 144.875 L 276.125 144.875 C 287.269531 144.929688 296.300781 153.964844 296.300781 165.105469 Z M 296.300781 165.105469 " fill-opacity="1" fill-rule="nonzero"/></g><g clip-path="url(#5d6fb50297)"><path fill="#ffa602" d="M 210.300781 229.042969 C 210.300781 234.503906 207.972656 238.777344 203.265625 241.859375 C 198.5625 244.945312 191.960938 246.457031 183.417969 246.457031 C 174.003906 246.457031 165.78125 244.621094 158.644531 240.941406 C 151.558594 237.261719 145.066406 232.070312 139.277344 225.417969 L 98.871094 225.417969 C 87.730469 225.472656 78.695312 216.4375 78.695312 205.296875 L 78.695312 196.371094 L 133.492188 118.804688 C 128.082031 126.863281 125.429688 136.4375 125.429688 147.527344 C 125.429688 156.777344 126.945312 164.402344 130.027344 170.460938 C 133.113281 176.519531 137.167969 181.550781 142.199219 185.605469 C 147.230469 189.609375 152.746094 192.964844 158.75 195.613281 C 164.753906 198.265625 170.757812 200.589844 176.816406 202.644531 C 182.875 204.699219 188.445312 206.863281 193.476562 209.082031 C 198.507812 211.300781 202.5625 213.949219 205.648438 217.035156 C 208.785156 220.0625 210.300781 224.117188 210.300781 229.042969 Z M 210.300781 229.042969 " fill-opacity="1" fill-rule="nonzero"/></g></svg>